<mxfile host="app.diagrams.net" modified="2024-06-27T16:04:35.159Z" agent="Mozilla/5.0 (Windows NT 10.0; Win64; x64) AppleWebKit/537.36 (KHTML, like Gecko) Chrome/126.0.0.0 Safari/537.36" etag="ypvzS7Fq-3_ouda4tiWh" version="24.6.3" type="device">
  <diagram name="Trang-1" id="TpLlYppdM2VsVx_QdYm2">
    <mxGraphModel dx="794" dy="420" grid="1" gridSize="10" guides="1" tooltips="1" connect="1" arrows="1" fold="1" page="1" pageScale="1" pageWidth="827" pageHeight="1169" math="0" shadow="0">
      <root>
        <mxCell id="0" />
        <mxCell id="1" parent="0" />
        <mxCell id="6xqh0I-vSeU7aA8JQd5K-16" value="" style="edgeStyle=orthogonalEdgeStyle;rounded=0;orthogonalLoop=1;jettySize=auto;html=1;" edge="1" parent="1" source="6xqh0I-vSeU7aA8JQd5K-2" target="6xqh0I-vSeU7aA8JQd5K-13">
          <mxGeometry relative="1" as="geometry" />
        </mxCell>
        <mxCell id="6xqh0I-vSeU7aA8JQd5K-2" value="Geocode address" style="html=1;dashed=0;whiteSpace=wrap;" vertex="1" parent="1">
          <mxGeometry x="590" y="155" width="100" height="50" as="geometry" />
        </mxCell>
        <mxCell id="6xqh0I-vSeU7aA8JQd5K-15" value="" style="edgeStyle=orthogonalEdgeStyle;rounded=0;orthogonalLoop=1;jettySize=auto;html=1;" edge="1" parent="1" source="6xqh0I-vSeU7aA8JQd5K-3" target="6xqh0I-vSeU7aA8JQd5K-2">
          <mxGeometry relative="1" as="geometry" />
        </mxCell>
        <mxCell id="6xqh0I-vSeU7aA8JQd5K-3" value="" style="html=1;dashed=0;whiteSpace=wrap;" vertex="1" parent="1">
          <mxGeometry x="180" y="80" width="380" height="200" as="geometry" />
        </mxCell>
        <mxCell id="6xqh0I-vSeU7aA8JQd5K-14" value="" style="edgeStyle=orthogonalEdgeStyle;rounded=0;orthogonalLoop=1;jettySize=auto;html=1;entryX=0;entryY=0.5;entryDx=0;entryDy=0;" edge="1" parent="1" source="6xqh0I-vSeU7aA8JQd5K-4" target="6xqh0I-vSeU7aA8JQd5K-3">
          <mxGeometry relative="1" as="geometry" />
        </mxCell>
        <mxCell id="6xqh0I-vSeU7aA8JQd5K-4" value="Load data to dataframe" style="html=1;dashed=0;whiteSpace=wrap;" vertex="1" parent="1">
          <mxGeometry x="40" y="155" width="100" height="50" as="geometry" />
        </mxCell>
        <mxCell id="6xqh0I-vSeU7aA8JQd5K-6" value="Normalize property" style="html=1;dashed=0;whiteSpace=wrap;" vertex="1" parent="1">
          <mxGeometry x="200" y="90" width="100" height="50" as="geometry" />
        </mxCell>
        <mxCell id="6xqh0I-vSeU7aA8JQd5K-7" value="Normalize bedroom, bathroom, floor" style="html=1;dashed=0;whiteSpace=wrap;" vertex="1" parent="1">
          <mxGeometry x="330" y="170" width="100" height="50" as="geometry" />
        </mxCell>
        <mxCell id="6xqh0I-vSeU7aA8JQd5K-8" value="Normalize price" style="html=1;dashed=0;whiteSpace=wrap;" vertex="1" parent="1">
          <mxGeometry x="200" y="170" width="100" height="50" as="geometry" />
        </mxCell>
        <mxCell id="6xqh0I-vSeU7aA8JQd5K-9" value="Normalize address" style="html=1;dashed=0;whiteSpace=wrap;" vertex="1" parent="1">
          <mxGeometry x="330" y="90" width="100" height="50" as="geometry" />
        </mxCell>
        <mxCell id="6xqh0I-vSeU7aA8JQd5K-11" value="Normalize area, width" style="html=1;dashed=0;whiteSpace=wrap;" vertex="1" parent="1">
          <mxGeometry x="450" y="90" width="100" height="50" as="geometry" />
        </mxCell>
        <mxCell id="6xqh0I-vSeU7aA8JQd5K-12" value="Normalize Type of Estate" style="html=1;dashed=0;whiteSpace=wrap;" vertex="1" parent="1">
          <mxGeometry x="450" y="170" width="100" height="50" as="geometry" />
        </mxCell>
        <mxCell id="6xqh0I-vSeU7aA8JQd5K-13" value="save to CSV" style="html=1;dashed=0;whiteSpace=wrap;" vertex="1" parent="1">
          <mxGeometry x="720" y="155" width="100" height="50" as="geometry" />
        </mxCell>
        <mxCell id="6xqh0I-vSeU7aA8JQd5K-17" style="edgeStyle=orthogonalEdgeStyle;rounded=0;orthogonalLoop=1;jettySize=auto;html=1;exitX=0.5;exitY=1;exitDx=0;exitDy=0;" edge="1" parent="1" source="6xqh0I-vSeU7aA8JQd5K-3" target="6xqh0I-vSeU7aA8JQd5K-3">
          <mxGeometry relative="1" as="geometry" />
        </mxCell>
        <mxCell id="6xqh0I-vSeU7aA8JQd5K-18" value="&lt;b&gt;&lt;font style=&quot;font-size: 13px;&quot;&gt;Nomalization Process&lt;/font&gt;&lt;/b&gt;" style="text;strokeColor=none;align=center;fillColor=none;html=1;verticalAlign=middle;whiteSpace=wrap;rounded=0;" vertex="1" parent="1">
          <mxGeometry x="305" y="240" width="145" height="30" as="geometry" />
        </mxCell>
      </root>
    </mxGraphModel>
  </diagram>
</mxfile>
